<?xml version="1.0" encoding="UTF-8"?>
<svg xmlns="http://www.w3.org/2000/svg" xmlns:xlink="http://www.w3.org/1999/xlink" width="480pt" height="480pt" version="1.1" viewBox="0 0 480 480">
  <g id="surface1">
    <path d="M 430 110 L 50 110 C 27.910156 110 10 127.910156 10 150 L 10 310 C 10 332.089844 27.910156 350 50 350 L 240 350 L 320 390 L 300 350 L 430 350 C 452.089844 350 470 332.089844 470 310 L 470 150 C 470 127.910156 452.089844 110 430 110 Z " style="stroke:none;fill-rule:nonzero;fill:#A64A7B;fill-opacity:1"/>
    <path d="M 404.429688 190 C 404.839844 190 405.75 190.050781 407.199219 190.378906 C 410.621094 191.148438 412.789063 192.359375 415.398438 197.238281 C 418.5 202.828125 420 210.070313 420 219.390625 C 420 233.371094 416.828125 245.78125 410.269531 257.410156 C 403.210938 270 398.050781 270 395.570313 270 C 395.160156 270 394.25 269.949219 392.800781 269.621094 C 389.378906 268.851563 387.210938 267.640625 384.710938 262.960938 C 381.578125 257.21875 380 249.628906 380 240.429688 C 380 226.441406 383.140625 214.128906 389.628906 202.78125 C 396.910156 190 402.179688 190 404.429688 190 M 404.429688 160 C 387.730469 160 374.171875 169.308594 363.558594 187.929688 C 354.519531 203.75 350 221.25 350 240.429688 C 350 254.769531 352.78125 267.050781 358.351563 277.289063 C 364.609375 289.019531 373.828125 296.089844 386.179688 298.890625 C 389.480469 299.628906 392.609375 300 395.570313 300 C 412.441406 300 426 290.691406 436.441406 272.070313 C 445.480469 256.058594 450 238.558594 450 219.390625 C 450 204.871094 447.21875 192.769531 441.648438 182.710938 C 435.390625 170.980469 426.171875 163.910156 413.820313 161.109375 C 410.519531 160.371094 407.390625 160 404.429688 160 Z " style="stroke:none;fill-rule:nonzero;fill:#FFFFFF;fill-opacity:1"/>
    <path d="M 284.429688 190 C 284.839844 190 285.75 190.050781 287.109375 190.359375 C 290.441406 191.121094 292.820313 192.429688 295.398438 197.25 C 298.5 202.828125 300 210.070313 300 219.390625 C 300 233.371094 296.828125 245.78125 290.269531 257.410156 C 283.210938 270 278.050781 270 275.570313 270 C 275.160156 270 274.25 269.949219 272.800781 269.621094 C 269.378906 268.851563 267.210938 267.640625 264.710938 262.960938 C 261.578125 257.21875 260 249.628906 260 240.429688 C 260 226.441406 263.140625 214.128906 269.628906 202.78125 C 276.910156 190 282.179688 190 284.429688 190 M 284.429688 160 C 267.730469 160 254.171875 169.308594 243.558594 187.929688 C 234.519531 203.75 230 221.25 230 240.429688 C 230 254.769531 232.78125 267.050781 238.351563 277.289063 C 244.609375 289.019531 253.828125 296.089844 266.179688 298.890625 C 269.480469 299.628906 272.609375 300 275.570313 300 C 292.441406 300 306 290.691406 316.441406 272.070313 C 325.480469 256.058594 330 238.558594 330 219.390625 C 330 204.871094 327.21875 192.769531 321.648438 182.710938 C 315.390625 170.980469 306 163.910156 293.820313 161.109375 C 290.519531 160.371094 287.390625 160 284.429688 160 Z " style="stroke:none;fill-rule:nonzero;fill:#FFFFFF;fill-opacity:1"/>
    <path d="M 185 320 C 180.789063 320 176.679688 318.21875 173.769531 314.949219 C 151.808594 290.160156 138.320313 257.601563 130.371094 231.519531 C 118.929688 255.71875 103.488281 286.671875 87.859375 312.710938 C 84.769531 317.859375 78.921875 320.628906 72.949219 319.859375 C 66.988281 319.03125 62.101563 314.730469 60.53125 308.929688 C 38.410156 227.660156 30.460938 169.429688 30.140625 166.988281 C 29.039063 158.789063 34.800781 151.238281 43 150.128906 C 51.308594 149.050781 58.761719 154.78125 59.871094 162.988281 C 59.941406 163.480469 65.578125 204.761719 80.199219 264.980469 C 102.378906 222.898438 120.980469 179.628906 121.21875 179.078125 C 123.890625 172.878906 130.410156 169.191406 137.019531 170.128906 C 143.699219 171.03125 148.960938 176.28125 149.871094 182.960938 C 149.941406 183.480469 155.289063 221.210938 172.320313 257.46875 C 179.511719 185.808594 201.050781 149.078125 202.140625 147.261719 C 206.410156 140.148438 215.640625 137.851563 222.71875 142.109375 C 229.828125 146.371094 232.128906 155.589844 227.871094 162.691406 C 227.621094 163.128906 200 211.148438 200 305 C 200 311.230469 196.140625 316.820313 190.320313 319.019531 C 188.578125 319.679688 186.789063 320 185 320 Z " style="stroke:none;fill-rule:nonzero;fill:#FFFFFF;fill-opacity:1"/>
  </g>
</svg>
